<?xml version="1.0" encoding="utf-8" standalone="no"?>
<!DOCTYPE svg PUBLIC "-//W3C//DTD SVG 1.1//EN"
  "http://www.w3.org/Graphics/SVG/1.1/DTD/svg11.dtd">
<!-- Created with matplotlib (https://matplotlib.org/) -->
<svg height="345.6pt" version="1.1" viewBox="0 0 460.8 345.6" width="460.8pt" xmlns="http://www.w3.org/2000/svg" xmlns:xlink="http://www.w3.org/1999/xlink">
 <metadata>
  <rdf:RDF xmlns:cc="http://creativecommons.org/ns#" xmlns:dc="http://purl.org/dc/elements/1.1/" xmlns:rdf="http://www.w3.org/1999/02/22-rdf-syntax-ns#">
   <cc:Work>
    <dc:type rdf:resource="http://purl.org/dc/dcmitype/StillImage"/>
    <dc:date>2021-04-08T09:49:05.671491</dc:date>
    <dc:format>image/svg+xml</dc:format>
    <dc:creator>
     <cc:Agent>
      <dc:title>Matplotlib v3.3.4, https://matplotlib.org/</dc:title>
     </cc:Agent>
    </dc:creator>
   </cc:Work>
  </rdf:RDF>
 </metadata>
 <defs>
  <style type="text/css">*{stroke-linecap:butt;stroke-linejoin:round;}</style>
 </defs>
 <g id="figure_1">
  <g id="patch_1">
   <path d="M 0 345.6 
L 460.8 345.6 
L 460.8 0 
L 0 0 
z
" style="fill:#ffffff;"/>
  </g>
  <g id="axes_1">
   <g id="patch_2">
    <path d="M 57.6 307.584 
L 414.72 307.584 
L 414.72 41.472 
L 57.6 41.472 
z
" style="fill:#ffffff;"/>
   </g>
   <g id="matplotlib.axis_1">
    <g id="xtick_1">
     <g id="line2d_1">
      <defs>
       <path d="M 0 0 
L 0 3.5 
" id="m7e98f0520d" style="stroke:#000000;stroke-width:0.8;"/>
      </defs>
      <g>
       <use style="stroke:#000000;stroke-width:0.8;" x="73.832727" xlink:href="#m7e98f0520d" y="307.584"/>
      </g>
     </g>
     <g id="text_1">
      <!-- 0 -->
      <g transform="translate(70.651477 322.182437)scale(0.1 -0.1)">
       <defs>
        <path d="M 31.78125 66.40625 
Q 24.171875 66.40625 20.328125 58.90625 
Q 16.5 51.421875 16.5 36.375 
Q 16.5 21.390625 20.328125 13.890625 
Q 24.171875 6.390625 31.78125 6.390625 
Q 39.453125 6.390625 43.28125 13.890625 
Q 47.125 21.390625 47.125 36.375 
Q 47.125 51.421875 43.28125 58.90625 
Q 39.453125 66.40625 31.78125 66.40625 
z
M 31.78125 74.21875 
Q 44.046875 74.21875 50.515625 64.515625 
Q 56.984375 54.828125 56.984375 36.375 
Q 56.984375 17.96875 50.515625 8.265625 
Q 44.046875 -1.421875 31.78125 -1.421875 
Q 19.53125 -1.421875 13.0625 8.265625 
Q 6.59375 17.96875 6.59375 36.375 
Q 6.59375 54.828125 13.0625 64.515625 
Q 19.53125 74.21875 31.78125 74.21875 
z
" id="DejaVuSans-48"/>
       </defs>
       <use xlink:href="#DejaVuSans-48"/>
      </g>
     </g>
    </g>
    <g id="xtick_2">
     <g id="line2d_2">
      <g>
       <use style="stroke:#000000;stroke-width:0.8;" x="139.819424" xlink:href="#m7e98f0520d" y="307.584"/>
      </g>
     </g>
     <g id="text_2">
      <!-- 50 -->
      <g transform="translate(133.456924 322.182437)scale(0.1 -0.1)">
       <defs>
        <path d="M 10.796875 72.90625 
L 49.515625 72.90625 
L 49.515625 64.59375 
L 19.828125 64.59375 
L 19.828125 46.734375 
Q 21.96875 47.46875 24.109375 47.828125 
Q 26.265625 48.1875 28.421875 48.1875 
Q 40.625 48.1875 47.75 41.5 
Q 54.890625 34.8125 54.890625 23.390625 
Q 54.890625 11.625 47.5625 5.09375 
Q 40.234375 -1.421875 26.90625 -1.421875 
Q 22.3125 -1.421875 17.546875 -0.640625 
Q 12.796875 0.140625 7.71875 1.703125 
L 7.71875 11.625 
Q 12.109375 9.234375 16.796875 8.0625 
Q 21.484375 6.890625 26.703125 6.890625 
Q 35.15625 6.890625 40.078125 11.328125 
Q 45.015625 15.765625 45.015625 23.390625 
Q 45.015625 31 40.078125 35.4375 
Q 35.15625 39.890625 26.703125 39.890625 
Q 22.75 39.890625 18.8125 39.015625 
Q 14.890625 38.140625 10.796875 36.28125 
z
" id="DejaVuSans-53"/>
       </defs>
       <use xlink:href="#DejaVuSans-53"/>
       <use x="63.623047" xlink:href="#DejaVuSans-48"/>
      </g>
     </g>
    </g>
    <g id="xtick_3">
     <g id="line2d_3">
      <g>
       <use style="stroke:#000000;stroke-width:0.8;" x="205.80612" xlink:href="#m7e98f0520d" y="307.584"/>
      </g>
     </g>
     <g id="text_3">
      <!-- 100 -->
      <g transform="translate(196.26237 322.182437)scale(0.1 -0.1)">
       <defs>
        <path d="M 12.40625 8.296875 
L 28.515625 8.296875 
L 28.515625 63.921875 
L 10.984375 60.40625 
L 10.984375 69.390625 
L 28.421875 72.90625 
L 38.28125 72.90625 
L 38.28125 8.296875 
L 54.390625 8.296875 
L 54.390625 0 
L 12.40625 0 
z
" id="DejaVuSans-49"/>
       </defs>
       <use xlink:href="#DejaVuSans-49"/>
       <use x="63.623047" xlink:href="#DejaVuSans-48"/>
       <use x="127.246094" xlink:href="#DejaVuSans-48"/>
      </g>
     </g>
    </g>
    <g id="xtick_4">
     <g id="line2d_4">
      <g>
       <use style="stroke:#000000;stroke-width:0.8;" x="271.792816" xlink:href="#m7e98f0520d" y="307.584"/>
      </g>
     </g>
     <g id="text_4">
      <!-- 150 -->
      <g transform="translate(262.249066 322.182437)scale(0.1 -0.1)">
       <use xlink:href="#DejaVuSans-49"/>
       <use x="63.623047" xlink:href="#DejaVuSans-53"/>
       <use x="127.246094" xlink:href="#DejaVuSans-48"/>
      </g>
     </g>
    </g>
    <g id="xtick_5">
     <g id="line2d_5">
      <g>
       <use style="stroke:#000000;stroke-width:0.8;" x="337.779512" xlink:href="#m7e98f0520d" y="307.584"/>
      </g>
     </g>
     <g id="text_5">
      <!-- 200 -->
      <g transform="translate(328.235762 322.182437)scale(0.1 -0.1)">
       <defs>
        <path d="M 19.1875 8.296875 
L 53.609375 8.296875 
L 53.609375 0 
L 7.328125 0 
L 7.328125 8.296875 
Q 12.9375 14.109375 22.625 23.890625 
Q 32.328125 33.6875 34.8125 36.53125 
Q 39.546875 41.84375 41.421875 45.53125 
Q 43.3125 49.21875 43.3125 52.78125 
Q 43.3125 58.59375 39.234375 62.25 
Q 35.15625 65.921875 28.609375 65.921875 
Q 23.96875 65.921875 18.8125 64.3125 
Q 13.671875 62.703125 7.8125 59.421875 
L 7.8125 69.390625 
Q 13.765625 71.78125 18.9375 73 
Q 24.125 74.21875 28.421875 74.21875 
Q 39.75 74.21875 46.484375 68.546875 
Q 53.21875 62.890625 53.21875 53.421875 
Q 53.21875 48.921875 51.53125 44.890625 
Q 49.859375 40.875 45.40625 35.40625 
Q 44.1875 33.984375 37.640625 27.21875 
Q 31.109375 20.453125 19.1875 8.296875 
z
" id="DejaVuSans-50"/>
       </defs>
       <use xlink:href="#DejaVuSans-50"/>
       <use x="63.623047" xlink:href="#DejaVuSans-48"/>
       <use x="127.246094" xlink:href="#DejaVuSans-48"/>
      </g>
     </g>
    </g>
    <g id="xtick_6">
     <g id="line2d_6">
      <g>
       <use style="stroke:#000000;stroke-width:0.8;" x="403.766208" xlink:href="#m7e98f0520d" y="307.584"/>
      </g>
     </g>
     <g id="text_6">
      <!-- 250 -->
      <g transform="translate(394.222458 322.182437)scale(0.1 -0.1)">
       <use xlink:href="#DejaVuSans-50"/>
       <use x="63.623047" xlink:href="#DejaVuSans-53"/>
       <use x="127.246094" xlink:href="#DejaVuSans-48"/>
      </g>
     </g>
    </g>
    <g id="text_7">
     <!-- Frame -->
     <g transform="translate(220.580312 335.860562)scale(0.1 -0.1)">
      <defs>
       <path d="M 9.8125 72.90625 
L 51.703125 72.90625 
L 51.703125 64.59375 
L 19.671875 64.59375 
L 19.671875 43.109375 
L 48.578125 43.109375 
L 48.578125 34.8125 
L 19.671875 34.8125 
L 19.671875 0 
L 9.8125 0 
z
" id="DejaVuSans-70"/>
       <path d="M 41.109375 46.296875 
Q 39.59375 47.171875 37.8125 47.578125 
Q 36.03125 48 33.890625 48 
Q 26.265625 48 22.1875 43.046875 
Q 18.109375 38.09375 18.109375 28.8125 
L 18.109375 0 
L 9.078125 0 
L 9.078125 54.6875 
L 18.109375 54.6875 
L 18.109375 46.1875 
Q 20.953125 51.171875 25.484375 53.578125 
Q 30.03125 56 36.53125 56 
Q 37.453125 56 38.578125 55.875 
Q 39.703125 55.765625 41.0625 55.515625 
z
" id="DejaVuSans-114"/>
       <path d="M 34.28125 27.484375 
Q 23.390625 27.484375 19.1875 25 
Q 14.984375 22.515625 14.984375 16.5 
Q 14.984375 11.71875 18.140625 8.90625 
Q 21.296875 6.109375 26.703125 6.109375 
Q 34.1875 6.109375 38.703125 11.40625 
Q 43.21875 16.703125 43.21875 25.484375 
L 43.21875 27.484375 
z
M 52.203125 31.203125 
L 52.203125 0 
L 43.21875 0 
L 43.21875 8.296875 
Q 40.140625 3.328125 35.546875 0.953125 
Q 30.953125 -1.421875 24.3125 -1.421875 
Q 15.921875 -1.421875 10.953125 3.296875 
Q 6 8.015625 6 15.921875 
Q 6 25.140625 12.171875 29.828125 
Q 18.359375 34.515625 30.609375 34.515625 
L 43.21875 34.515625 
L 43.21875 35.40625 
Q 43.21875 41.609375 39.140625 45 
Q 35.0625 48.390625 27.6875 48.390625 
Q 23 48.390625 18.546875 47.265625 
Q 14.109375 46.140625 10.015625 43.890625 
L 10.015625 52.203125 
Q 14.9375 54.109375 19.578125 55.046875 
Q 24.21875 56 28.609375 56 
Q 40.484375 56 46.34375 49.84375 
Q 52.203125 43.703125 52.203125 31.203125 
z
" id="DejaVuSans-97"/>
       <path d="M 52 44.1875 
Q 55.375 50.25 60.0625 53.125 
Q 64.75 56 71.09375 56 
Q 79.640625 56 84.28125 50.015625 
Q 88.921875 44.046875 88.921875 33.015625 
L 88.921875 0 
L 79.890625 0 
L 79.890625 32.71875 
Q 79.890625 40.578125 77.09375 44.375 
Q 74.3125 48.1875 68.609375 48.1875 
Q 61.625 48.1875 57.5625 43.546875 
Q 53.515625 38.921875 53.515625 30.90625 
L 53.515625 0 
L 44.484375 0 
L 44.484375 32.71875 
Q 44.484375 40.625 41.703125 44.40625 
Q 38.921875 48.1875 33.109375 48.1875 
Q 26.21875 48.1875 22.15625 43.53125 
Q 18.109375 38.875 18.109375 30.90625 
L 18.109375 0 
L 9.078125 0 
L 9.078125 54.6875 
L 18.109375 54.6875 
L 18.109375 46.1875 
Q 21.1875 51.21875 25.484375 53.609375 
Q 29.78125 56 35.6875 56 
Q 41.65625 56 45.828125 52.96875 
Q 50 49.953125 52 44.1875 
z
" id="DejaVuSans-109"/>
       <path d="M 56.203125 29.59375 
L 56.203125 25.203125 
L 14.890625 25.203125 
Q 15.484375 15.921875 20.484375 11.0625 
Q 25.484375 6.203125 34.421875 6.203125 
Q 39.59375 6.203125 44.453125 7.46875 
Q 49.3125 8.734375 54.109375 11.28125 
L 54.109375 2.78125 
Q 49.265625 0.734375 44.1875 -0.34375 
Q 39.109375 -1.421875 33.890625 -1.421875 
Q 20.796875 -1.421875 13.15625 6.1875 
Q 5.515625 13.8125 5.515625 26.8125 
Q 5.515625 40.234375 12.765625 48.109375 
Q 20.015625 56 32.328125 56 
Q 43.359375 56 49.78125 48.890625 
Q 56.203125 41.796875 56.203125 29.59375 
z
M 47.21875 32.234375 
Q 47.125 39.59375 43.09375 43.984375 
Q 39.0625 48.390625 32.421875 48.390625 
Q 24.90625 48.390625 20.390625 44.140625 
Q 15.875 39.890625 15.1875 32.171875 
z
" id="DejaVuSans-101"/>
      </defs>
      <use xlink:href="#DejaVuSans-70"/>
      <use x="50.269531" xlink:href="#DejaVuSans-114"/>
      <use x="91.382812" xlink:href="#DejaVuSans-97"/>
      <use x="152.662109" xlink:href="#DejaVuSans-109"/>
      <use x="250.074219" xlink:href="#DejaVuSans-101"/>
     </g>
    </g>
   </g>
   <g id="matplotlib.axis_2">
    <g id="ytick_1">
     <g id="line2d_7">
      <defs>
       <path d="M 0 0 
L -3.5 0 
" id="m5a5920ce54" style="stroke:#000000;stroke-width:0.8;"/>
      </defs>
      <g>
       <use style="stroke:#000000;stroke-width:0.8;" x="57.6" xlink:href="#m5a5920ce54" y="276.758478"/>
      </g>
     </g>
     <g id="text_8">
      <!-- 3000 -->
      <g transform="translate(25.15 280.557697)scale(0.1 -0.1)">
       <defs>
        <path d="M 40.578125 39.3125 
Q 47.65625 37.796875 51.625 33 
Q 55.609375 28.21875 55.609375 21.1875 
Q 55.609375 10.40625 48.1875 4.484375 
Q 40.765625 -1.421875 27.09375 -1.421875 
Q 22.515625 -1.421875 17.65625 -0.515625 
Q 12.796875 0.390625 7.625 2.203125 
L 7.625 11.71875 
Q 11.71875 9.328125 16.59375 8.109375 
Q 21.484375 6.890625 26.8125 6.890625 
Q 36.078125 6.890625 40.9375 10.546875 
Q 45.796875 14.203125 45.796875 21.1875 
Q 45.796875 27.640625 41.28125 31.265625 
Q 36.765625 34.90625 28.71875 34.90625 
L 20.21875 34.90625 
L 20.21875 43.015625 
L 29.109375 43.015625 
Q 36.375 43.015625 40.234375 45.921875 
Q 44.09375 48.828125 44.09375 54.296875 
Q 44.09375 59.90625 40.109375 62.90625 
Q 36.140625 65.921875 28.71875 65.921875 
Q 24.65625 65.921875 20.015625 65.03125 
Q 15.375 64.15625 9.8125 62.3125 
L 9.8125 71.09375 
Q 15.4375 72.65625 20.34375 73.4375 
Q 25.25 74.21875 29.59375 74.21875 
Q 40.828125 74.21875 47.359375 69.109375 
Q 53.90625 64.015625 53.90625 55.328125 
Q 53.90625 49.265625 50.4375 45.09375 
Q 46.96875 40.921875 40.578125 39.3125 
z
" id="DejaVuSans-51"/>
       </defs>
       <use xlink:href="#DejaVuSans-51"/>
       <use x="63.623047" xlink:href="#DejaVuSans-48"/>
       <use x="127.246094" xlink:href="#DejaVuSans-48"/>
       <use x="190.869141" xlink:href="#DejaVuSans-48"/>
      </g>
     </g>
    </g>
    <g id="ytick_2">
     <g id="line2d_8">
      <g>
       <use style="stroke:#000000;stroke-width:0.8;" x="57.6" xlink:href="#m5a5920ce54" y="218.203736"/>
      </g>
     </g>
     <g id="text_9">
      <!-- 4000 -->
      <g transform="translate(25.15 222.002954)scale(0.1 -0.1)">
       <defs>
        <path d="M 37.796875 64.3125 
L 12.890625 25.390625 
L 37.796875 25.390625 
z
M 35.203125 72.90625 
L 47.609375 72.90625 
L 47.609375 25.390625 
L 58.015625 25.390625 
L 58.015625 17.1875 
L 47.609375 17.1875 
L 47.609375 0 
L 37.796875 0 
L 37.796875 17.1875 
L 4.890625 17.1875 
L 4.890625 26.703125 
z
" id="DejaVuSans-52"/>
       </defs>
       <use xlink:href="#DejaVuSans-52"/>
       <use x="63.623047" xlink:href="#DejaVuSans-48"/>
       <use x="127.246094" xlink:href="#DejaVuSans-48"/>
       <use x="190.869141" xlink:href="#DejaVuSans-48"/>
      </g>
     </g>
    </g>
    <g id="ytick_3">
     <g id="line2d_9">
      <g>
       <use style="stroke:#000000;stroke-width:0.8;" x="57.6" xlink:href="#m5a5920ce54" y="159.648993"/>
      </g>
     </g>
     <g id="text_10">
      <!-- 5000 -->
      <g transform="translate(25.15 163.448212)scale(0.1 -0.1)">
       <use xlink:href="#DejaVuSans-53"/>
       <use x="63.623047" xlink:href="#DejaVuSans-48"/>
       <use x="127.246094" xlink:href="#DejaVuSans-48"/>
       <use x="190.869141" xlink:href="#DejaVuSans-48"/>
      </g>
     </g>
    </g>
    <g id="ytick_4">
     <g id="line2d_10">
      <g>
       <use style="stroke:#000000;stroke-width:0.8;" x="57.6" xlink:href="#m5a5920ce54" y="101.094251"/>
      </g>
     </g>
     <g id="text_11">
      <!-- 6000 -->
      <g transform="translate(25.15 104.89347)scale(0.1 -0.1)">
       <defs>
        <path d="M 33.015625 40.375 
Q 26.375 40.375 22.484375 35.828125 
Q 18.609375 31.296875 18.609375 23.390625 
Q 18.609375 15.53125 22.484375 10.953125 
Q 26.375 6.390625 33.015625 6.390625 
Q 39.65625 6.390625 43.53125 10.953125 
Q 47.40625 15.53125 47.40625 23.390625 
Q 47.40625 31.296875 43.53125 35.828125 
Q 39.65625 40.375 33.015625 40.375 
z
M 52.59375 71.296875 
L 52.59375 62.3125 
Q 48.875 64.0625 45.09375 64.984375 
Q 41.3125 65.921875 37.59375 65.921875 
Q 27.828125 65.921875 22.671875 59.328125 
Q 17.53125 52.734375 16.796875 39.40625 
Q 19.671875 43.65625 24.015625 45.921875 
Q 28.375 48.1875 33.59375 48.1875 
Q 44.578125 48.1875 50.953125 41.515625 
Q 57.328125 34.859375 57.328125 23.390625 
Q 57.328125 12.15625 50.6875 5.359375 
Q 44.046875 -1.421875 33.015625 -1.421875 
Q 20.359375 -1.421875 13.671875 8.265625 
Q 6.984375 17.96875 6.984375 36.375 
Q 6.984375 53.65625 15.1875 63.9375 
Q 23.390625 74.21875 37.203125 74.21875 
Q 40.921875 74.21875 44.703125 73.484375 
Q 48.484375 72.75 52.59375 71.296875 
z
" id="DejaVuSans-54"/>
       </defs>
       <use xlink:href="#DejaVuSans-54"/>
       <use x="63.623047" xlink:href="#DejaVuSans-48"/>
       <use x="127.246094" xlink:href="#DejaVuSans-48"/>
       <use x="190.869141" xlink:href="#DejaVuSans-48"/>
      </g>
     </g>
    </g>
    <g id="ytick_5">
     <g id="line2d_11">
      <g>
       <use style="stroke:#000000;stroke-width:0.8;" x="57.6" xlink:href="#m5a5920ce54" y="42.539508"/>
      </g>
     </g>
     <g id="text_12">
      <!-- 7000 -->
      <g transform="translate(25.15 46.338727)scale(0.1 -0.1)">
       <defs>
        <path d="M 8.203125 72.90625 
L 55.078125 72.90625 
L 55.078125 68.703125 
L 28.609375 0 
L 18.3125 0 
L 43.21875 64.59375 
L 8.203125 64.59375 
z
" id="DejaVuSans-55"/>
       </defs>
       <use xlink:href="#DejaVuSans-55"/>
       <use x="63.623047" xlink:href="#DejaVuSans-48"/>
       <use x="127.246094" xlink:href="#DejaVuSans-48"/>
       <use x="190.869141" xlink:href="#DejaVuSans-48"/>
      </g>
     </g>
    </g>
    <g id="text_13">
     <!-- f -->
     <g transform="translate(19.070312 176.288156)rotate(-90)scale(0.1 -0.1)">
      <defs>
       <path d="M 37.109375 75.984375 
L 37.109375 68.5 
L 28.515625 68.5 
Q 23.6875 68.5 21.796875 66.546875 
Q 19.921875 64.59375 19.921875 59.515625 
L 19.921875 54.6875 
L 34.71875 54.6875 
L 34.71875 47.703125 
L 19.921875 47.703125 
L 19.921875 0 
L 10.890625 0 
L 10.890625 47.703125 
L 2.296875 47.703125 
L 2.296875 54.6875 
L 10.890625 54.6875 
L 10.890625 58.5 
Q 10.890625 67.625 15.140625 71.796875 
Q 19.390625 75.984375 28.609375 75.984375 
z
" id="DejaVuSans-102"/>
      </defs>
      <use xlink:href="#DejaVuSans-102"/>
     </g>
    </g>
   </g>
   <g id="line2d_12">
    <defs>
     <path d="M 0 1.5 
C 0.397805 1.5 0.77937 1.341951 1.06066 1.06066 
C 1.341951 0.77937 1.5 0.397805 1.5 0 
C 1.5 -0.397805 1.341951 -0.77937 1.06066 -1.06066 
C 0.77937 -1.341951 0.397805 -1.5 0 -1.5 
C -0.397805 -1.5 -0.77937 -1.341951 -1.06066 -1.06066 
C -1.341951 -0.77937 -1.5 -0.397805 -1.5 0 
C -1.5 0.397805 -1.341951 0.77937 -1.06066 1.06066 
C -0.77937 1.341951 -0.397805 1.5 0 1.5 
z
" id="m3baefb1e67" style="stroke:#1f77b4;"/>
    </defs>
    <g clip-path="url(#p6e674280bd)">
     <use style="fill:#1f77b4;stroke:#1f77b4;" x="73.832727" xlink:href="#m3baefb1e67" y="273.931501"/>
     <use style="fill:#1f77b4;stroke:#1f77b4;" x="75.152461" xlink:href="#m3baefb1e67" y="274.018008"/>
     <use style="fill:#1f77b4;stroke:#1f77b4;" x="76.472195" xlink:href="#m3baefb1e67" y="274.099163"/>
     <use style="fill:#1f77b4;stroke:#1f77b4;" x="77.791929" xlink:href="#m3baefb1e67" y="274.174965"/>
     <use style="fill:#1f77b4;stroke:#1f77b4;" x="79.111663" xlink:href="#m3baefb1e67" y="274.231681"/>
     <use style="fill:#1f77b4;stroke:#1f77b4;" x="80.431397" xlink:href="#m3baefb1e67" y="274.269311"/>
     <use style="fill:#1f77b4;stroke:#1f77b4;" x="81.751131" xlink:href="#m3baefb1e67" y="274.287854"/>
     <use style="fill:#1f77b4;stroke:#1f77b4;" x="83.070865" xlink:href="#m3baefb1e67" y="274.287854"/>
     <use style="fill:#1f77b4;stroke:#1f77b4;" x="84.390599" xlink:href="#m3baefb1e67" y="274.321673"/>
     <use style="fill:#1f77b4;stroke:#1f77b4;" x="85.710333" xlink:href="#m3baefb1e67" y="274.453967"/>
     <use style="fill:#1f77b4;stroke:#1f77b4;" x="87.030067" xlink:href="#m3baefb1e67" y="274.684514"/>
     <use style="fill:#1f77b4;stroke:#1f77b4;" x="88.3498" xlink:href="#m3baefb1e67" y="274.914897"/>
     <use style="fill:#1f77b4;stroke:#1f77b4;" x="89.669534" xlink:href="#m3baefb1e67" y="274.879486"/>
     <use style="fill:#1f77b4;stroke:#1f77b4;" x="90.989268" xlink:href="#m3baefb1e67" y="274.581505"/>
     <use style="fill:#1f77b4;stroke:#1f77b4;" x="92.309002" xlink:href="#m3baefb1e67" y="274.285501"/>
     <use style="fill:#1f77b4;stroke:#1f77b4;" x="93.628736" xlink:href="#m3baefb1e67" y="274.080613"/>
     <use style="fill:#1f77b4;stroke:#1f77b4;" x="94.94847" xlink:href="#m3baefb1e67" y="273.966631"/>
     <use style="fill:#1f77b4;stroke:#1f77b4;" x="96.268204" xlink:href="#m3baefb1e67" y="273.82825"/>
     <use style="fill:#1f77b4;stroke:#1f77b4;" x="97.587938" xlink:href="#m3baefb1e67" y="273.66548"/>
     <use style="fill:#1f77b4;stroke:#1f77b4;" x="98.907672" xlink:href="#m3baefb1e67" y="273.502715"/>
     <use style="fill:#1f77b4;stroke:#1f77b4;" x="100.227406" xlink:href="#m3baefb1e67" y="273.339952"/>
     <use style="fill:#1f77b4;stroke:#1f77b4;" x="101.54714" xlink:href="#m3baefb1e67" y="273.177195"/>
     <use style="fill:#1f77b4;stroke:#1f77b4;" x="102.866874" xlink:href="#m3baefb1e67" y="273.09564"/>
     <use style="fill:#1f77b4;stroke:#1f77b4;" x="104.186608" xlink:href="#m3baefb1e67" y="273.96141"/>
     <use style="fill:#1f77b4;stroke:#1f77b4;" x="105.506341" xlink:href="#m3baefb1e67" y="275.774504"/>
     <use style="fill:#1f77b4;stroke:#1f77b4;" x="106.826075" xlink:href="#m3baefb1e67" y="278.251519"/>
     <use style="fill:#1f77b4;stroke:#1f77b4;" x="108.145809" xlink:href="#m3baefb1e67" y="280.728535"/>
     <use style="fill:#1f77b4;stroke:#1f77b4;" x="109.465543" xlink:href="#m3baefb1e67" y="280.9728"/>
     <use style="fill:#1f77b4;stroke:#1f77b4;" x="110.785277" xlink:href="#m3baefb1e67" y="278.984315"/>
     <use style="fill:#1f77b4;stroke:#1f77b4;" x="112.105011" xlink:href="#m3baefb1e67" y="276.775164"/>
     <use style="fill:#1f77b4;stroke:#1f77b4;" x="113.424745" xlink:href="#m3baefb1e67" y="274.566014"/>
     <use style="fill:#1f77b4;stroke:#1f77b4;" x="114.744479" xlink:href="#m3baefb1e67" y="273.388525"/>
     <use style="fill:#1f77b4;stroke:#1f77b4;" x="116.064213" xlink:href="#m3baefb1e67" y="273.242699"/>
     <use style="fill:#1f77b4;stroke:#1f77b4;" x="117.383947" xlink:href="#m3baefb1e67" y="273.14937"/>
     <use style="fill:#1f77b4;stroke:#1f77b4;" x="118.703681" xlink:href="#m3baefb1e67" y="273.083363"/>
     <use style="fill:#1f77b4;stroke:#1f77b4;" x="120.023415" xlink:href="#m3baefb1e67" y="273.017257"/>
     <use style="fill:#1f77b4;stroke:#1f77b4;" x="121.343149" xlink:href="#m3baefb1e67" y="272.950245"/>
     <use style="fill:#1f77b4;stroke:#1f77b4;" x="122.662882" xlink:href="#m3baefb1e67" y="272.882539"/>
     <use style="fill:#1f77b4;stroke:#1f77b4;" x="123.982616" xlink:href="#m3baefb1e67" y="272.814956"/>
     <use style="fill:#1f77b4;stroke:#1f77b4;" x="125.30235" xlink:href="#m3baefb1e67" y="272.747994"/>
     <use style="fill:#1f77b4;stroke:#1f77b4;" x="126.622084" xlink:href="#m3baefb1e67" y="272.681624"/>
     <use style="fill:#1f77b4;stroke:#1f77b4;" x="127.941818" xlink:href="#m3baefb1e67" y="272.615255"/>
     <use style="fill:#1f77b4;stroke:#1f77b4;" x="129.261552" xlink:href="#m3baefb1e67" y="272.459054"/>
     <use style="fill:#1f77b4;stroke:#1f77b4;" x="130.581286" xlink:href="#m3baefb1e67" y="272.213002"/>
     <use style="fill:#1f77b4;stroke:#1f77b4;" x="131.90102" xlink:href="#m3baefb1e67" y="271.966911"/>
     <use style="fill:#1f77b4;stroke:#1f77b4;" x="133.220754" xlink:href="#m3baefb1e67" y="271.721268"/>
     <use style="fill:#1f77b4;stroke:#1f77b4;" x="134.540488" xlink:href="#m3baefb1e67" y="271.476071"/>
     <use style="fill:#1f77b4;stroke:#1f77b4;" x="135.860222" xlink:href="#m3baefb1e67" y="271.133155"/>
     <use style="fill:#1f77b4;stroke:#1f77b4;" x="137.179956" xlink:href="#m3baefb1e67" y="270.69252"/>
     <use style="fill:#1f77b4;stroke:#1f77b4;" x="138.49969" xlink:href="#m3baefb1e67" y="270.246788"/>
     <use style="fill:#1f77b4;stroke:#1f77b4;" x="139.819424" xlink:href="#m3baefb1e67" y="269.801055"/>
     <use style="fill:#1f77b4;stroke:#1f77b4;" x="141.139157" xlink:href="#m3baefb1e67" y="269.526121"/>
     <use style="fill:#1f77b4;stroke:#1f77b4;" x="142.458891" xlink:href="#m3baefb1e67" y="269.421986"/>
     <use style="fill:#1f77b4;stroke:#1f77b4;" x="143.778625" xlink:href="#m3baefb1e67" y="269.317855"/>
     <use style="fill:#1f77b4;stroke:#1f77b4;" x="145.098359" xlink:href="#m3baefb1e67" y="269.144019"/>
     <use style="fill:#1f77b4;stroke:#1f77b4;" x="146.418093" xlink:href="#m3baefb1e67" y="268.900478"/>
     <use style="fill:#1f77b4;stroke:#1f77b4;" x="147.737827" xlink:href="#m3baefb1e67" y="268.621398"/>
     <use style="fill:#1f77b4;stroke:#1f77b4;" x="149.057561" xlink:href="#m3baefb1e67" y="268.329693"/>
     <use style="fill:#1f77b4;stroke:#1f77b4;" x="150.377295" xlink:href="#m3baefb1e67" y="268.025364"/>
     <use style="fill:#1f77b4;stroke:#1f77b4;" x="151.697029" xlink:href="#m3baefb1e67" y="267.696129"/>
     <use style="fill:#1f77b4;stroke:#1f77b4;" x="153.016763" xlink:href="#m3baefb1e67" y="267.341987"/>
     <use style="fill:#1f77b4;stroke:#1f77b4;" x="154.336497" xlink:href="#m3baefb1e67" y="266.985934"/>
     <use style="fill:#1f77b4;stroke:#1f77b4;" x="155.656231" xlink:href="#m3baefb1e67" y="266.62988"/>
     <use style="fill:#1f77b4;stroke:#1f77b4;" x="156.975965" xlink:href="#m3baefb1e67" y="266.273828"/>
     <use style="fill:#1f77b4;stroke:#1f77b4;" x="158.295698" xlink:href="#m3baefb1e67" y="265.918275"/>
     <use style="fill:#1f77b4;stroke:#1f77b4;" x="159.615432" xlink:href="#m3baefb1e67" y="265.563219"/>
     <use style="fill:#1f77b4;stroke:#1f77b4;" x="160.935166" xlink:href="#m3baefb1e67" y="265.208163"/>
     <use style="fill:#1f77b4;stroke:#1f77b4;" x="162.2549" xlink:href="#m3baefb1e67" y="264.824096"/>
     <use style="fill:#1f77b4;stroke:#1f77b4;" x="163.574634" xlink:href="#m3baefb1e67" y="264.41102"/>
     <use style="fill:#1f77b4;stroke:#1f77b4;" x="164.894368" xlink:href="#m3baefb1e67" y="263.978061"/>
     <use style="fill:#1f77b4;stroke:#1f77b4;" x="166.214102" xlink:href="#m3baefb1e67" y="263.545102"/>
     <use style="fill:#1f77b4;stroke:#1f77b4;" x="167.533836" xlink:href="#m3baefb1e67" y="263.150957"/>
     <use style="fill:#1f77b4;stroke:#1f77b4;" x="168.85357" xlink:href="#m3baefb1e67" y="262.795625"/>
     <use style="fill:#1f77b4;stroke:#1f77b4;" x="170.173304" xlink:href="#m3baefb1e67" y="262.430854"/>
     <use style="fill:#1f77b4;stroke:#1f77b4;" x="171.493038" xlink:href="#m3baefb1e67" y="261.985533"/>
     <use style="fill:#1f77b4;stroke:#1f77b4;" x="172.812772" xlink:href="#m3baefb1e67" y="261.461465"/>
     <use style="fill:#1f77b4;stroke:#1f77b4;" x="174.132506" xlink:href="#m3baefb1e67" y="260.938629"/>
     <use style="fill:#1f77b4;stroke:#1f77b4;" x="175.452239" xlink:href="#m3baefb1e67" y="260.453872"/>
     <use style="fill:#1f77b4;stroke:#1f77b4;" x="176.771973" xlink:href="#m3baefb1e67" y="260.006877"/>
     <use style="fill:#1f77b4;stroke:#1f77b4;" x="178.091707" xlink:href="#m3baefb1e67" y="259.496094"/>
     <use style="fill:#1f77b4;stroke:#1f77b4;" x="179.411441" xlink:href="#m3baefb1e67" y="258.921539"/>
     <use style="fill:#1f77b4;stroke:#1f77b4;" x="180.731175" xlink:href="#m3baefb1e67" y="258.34699"/>
     <use style="fill:#1f77b4;stroke:#1f77b4;" x="182.050909" xlink:href="#m3baefb1e67" y="257.900131"/>
     <use style="fill:#1f77b4;stroke:#1f77b4;" x="183.370643" xlink:href="#m3baefb1e67" y="257.580961"/>
     <use style="fill:#1f77b4;stroke:#1f77b4;" x="184.690377" xlink:href="#m3baefb1e67" y="257.261791"/>
     <use style="fill:#1f77b4;stroke:#1f77b4;" x="186.010111" xlink:href="#m3baefb1e67" y="256.86458"/>
     <use style="fill:#1f77b4;stroke:#1f77b4;" x="187.329845" xlink:href="#m3baefb1e67" y="256.389328"/>
     <use style="fill:#1f77b4;stroke:#1f77b4;" x="188.649579" xlink:href="#m3baefb1e67" y="255.646619"/>
     <use style="fill:#1f77b4;stroke:#1f77b4;" x="189.969313" xlink:href="#m3baefb1e67" y="254.525853"/>
     <use style="fill:#1f77b4;stroke:#1f77b4;" x="191.289047" xlink:href="#m3baefb1e67" y="253.02703"/>
     <use style="fill:#1f77b4;stroke:#1f77b4;" x="192.60878" xlink:href="#m3baefb1e67" y="251.528207"/>
     <use style="fill:#1f77b4;stroke:#1f77b4;" x="193.928514" xlink:href="#m3baefb1e67" y="251.222951"/>
     <use style="fill:#1f77b4;stroke:#1f77b4;" x="195.248248" xlink:href="#m3baefb1e67" y="252.111344"/>
     <use style="fill:#1f77b4;stroke:#1f77b4;" x="196.567982" xlink:href="#m3baefb1e67" y="253.018686"/>
     <use style="fill:#1f77b4;stroke:#1f77b4;" x="197.887716" xlink:href="#m3baefb1e67" y="253.925716"/>
     <use style="fill:#1f77b4;stroke:#1f77b4;" x="199.20745" xlink:href="#m3baefb1e67" y="254.831748"/>
     <use style="fill:#1f77b4;stroke:#1f77b4;" x="200.527184" xlink:href="#m3baefb1e67" y="255.423757"/>
     <use style="fill:#1f77b4;stroke:#1f77b4;" x="201.846918" xlink:href="#m3baefb1e67" y="255.698834"/>
     <use style="fill:#1f77b4;stroke:#1f77b4;" x="203.166652" xlink:href="#m3baefb1e67" y="255.653425"/>
     <use style="fill:#1f77b4;stroke:#1f77b4;" x="204.486386" xlink:href="#m3baefb1e67" y="254.511574"/>
     <use style="fill:#1f77b4;stroke:#1f77b4;" x="205.80612" xlink:href="#m3baefb1e67" y="252.273282"/>
     <use style="fill:#1f77b4;stroke:#1f77b4;" x="207.125854" xlink:href="#m3baefb1e67" y="250.034991"/>
     <use style="fill:#1f77b4;stroke:#1f77b4;" x="208.445588" xlink:href="#m3baefb1e67" y="248.658402"/>
     <use style="fill:#1f77b4;stroke:#1f77b4;" x="209.765322" xlink:href="#m3baefb1e67" y="248.143517"/>
     <use style="fill:#1f77b4;stroke:#1f77b4;" x="211.085055" xlink:href="#m3baefb1e67" y="247.785145"/>
     <use style="fill:#1f77b4;stroke:#1f77b4;" x="212.404789" xlink:href="#m3baefb1e67" y="247.426774"/>
     <use style="fill:#1f77b4;stroke:#1f77b4;" x="213.724523" xlink:href="#m3baefb1e67" y="246.761105"/>
     <use style="fill:#1f77b4;stroke:#1f77b4;" x="215.044257" xlink:href="#m3baefb1e67" y="246.095437"/>
     <use style="fill:#1f77b4;stroke:#1f77b4;" x="216.363991" xlink:href="#m3baefb1e67" y="245.460468"/>
     <use style="fill:#1f77b4;stroke:#1f77b4;" x="217.683725" xlink:href="#m3baefb1e67" y="244.911356"/>
     <use style="fill:#1f77b4;stroke:#1f77b4;" x="219.003459" xlink:href="#m3baefb1e67" y="244.448103"/>
     <use style="fill:#1f77b4;stroke:#1f77b4;" x="220.323193" xlink:href="#m3baefb1e67" y="244.014715"/>
     <use style="fill:#1f77b4;stroke:#1f77b4;" x="221.642927" xlink:href="#m3baefb1e67" y="243.611193"/>
     <use style="fill:#1f77b4;stroke:#1f77b4;" x="222.962661" xlink:href="#m3baefb1e67" y="243.524805"/>
     <use style="fill:#1f77b4;stroke:#1f77b4;" x="224.282395" xlink:href="#m3baefb1e67" y="243.75555"/>
     <use style="fill:#1f77b4;stroke:#1f77b4;" x="225.602129" xlink:href="#m3baefb1e67" y="244.221047"/>
     <use style="fill:#1f77b4;stroke:#1f77b4;" x="226.921863" xlink:href="#m3baefb1e67" y="244.686543"/>
     <use style="fill:#1f77b4;stroke:#1f77b4;" x="228.241596" xlink:href="#m3baefb1e67" y="244.122424"/>
     <use style="fill:#1f77b4;stroke:#1f77b4;" x="229.56133" xlink:href="#m3baefb1e67" y="242.52868"/>
     <use style="fill:#1f77b4;stroke:#1f77b4;" x="230.881064" xlink:href="#m3baefb1e67" y="240.934836"/>
     <use style="fill:#1f77b4;stroke:#1f77b4;" x="232.200798" xlink:href="#m3baefb1e67" y="239.511565"/>
     <use style="fill:#1f77b4;stroke:#1f77b4;" x="233.520532" xlink:href="#m3baefb1e67" y="238.483784"/>
     <use style="fill:#1f77b4;stroke:#1f77b4;" x="234.840266" xlink:href="#m3baefb1e67" y="237.851494"/>
     <use style="fill:#1f77b4;stroke:#1f77b4;" x="236.16" xlink:href="#m3baefb1e67" y="237.218429"/>
     <use style="fill:#1f77b4;stroke:#1f77b4;" x="237.479734" xlink:href="#m3baefb1e67" y="236.584177"/>
     <use style="fill:#1f77b4;stroke:#1f77b4;" x="238.799468" xlink:href="#m3baefb1e67" y="235.94877"/>
     <use style="fill:#1f77b4;stroke:#1f77b4;" x="240.119202" xlink:href="#m3baefb1e67" y="235.312207"/>
     <use style="fill:#1f77b4;stroke:#1f77b4;" x="241.438936" xlink:href="#m3baefb1e67" y="234.649431"/>
     <use style="fill:#1f77b4;stroke:#1f77b4;" x="242.75867" xlink:href="#m3baefb1e67" y="233.960441"/>
     <use style="fill:#1f77b4;stroke:#1f77b4;" x="244.078404" xlink:href="#m3baefb1e67" y="233.266903"/>
     <use style="fill:#1f77b4;stroke:#1f77b4;" x="245.398137" xlink:href="#m3baefb1e67" y="232.568815"/>
     <use style="fill:#1f77b4;stroke:#1f77b4;" x="246.717871" xlink:href="#m3baefb1e67" y="231.858502"/>
     <use style="fill:#1f77b4;stroke:#1f77b4;" x="248.037605" xlink:href="#m3baefb1e67" y="231.135964"/>
     <use style="fill:#1f77b4;stroke:#1f77b4;" x="249.357339" xlink:href="#m3baefb1e67" y="230.40201"/>
     <use style="fill:#1f77b4;stroke:#1f77b4;" x="250.677073" xlink:href="#m3baefb1e67" y="229.656642"/>
     <use style="fill:#1f77b4;stroke:#1f77b4;" x="251.996807" xlink:href="#m3baefb1e67" y="228.826409"/>
     <use style="fill:#1f77b4;stroke:#1f77b4;" x="253.316541" xlink:href="#m3baefb1e67" y="227.911313"/>
     <use style="fill:#1f77b4;stroke:#1f77b4;" x="254.636275" xlink:href="#m3baefb1e67" y="226.935128"/>
     <use style="fill:#1f77b4;stroke:#1f77b4;" x="255.956009" xlink:href="#m3baefb1e67" y="225.958943"/>
     <use style="fill:#1f77b4;stroke:#1f77b4;" x="257.275743" xlink:href="#m3baefb1e67" y="225.114701"/>
     <use style="fill:#1f77b4;stroke:#1f77b4;" x="258.595477" xlink:href="#m3baefb1e67" y="224.402403"/>
     <use style="fill:#1f77b4;stroke:#1f77b4;" x="259.915211" xlink:href="#m3baefb1e67" y="223.693067"/>
     <use style="fill:#1f77b4;stroke:#1f77b4;" x="261.234945" xlink:href="#m3baefb1e67" y="222.888138"/>
     <use style="fill:#1f77b4;stroke:#1f77b4;" x="262.554678" xlink:href="#m3baefb1e67" y="221.987615"/>
     <use style="fill:#1f77b4;stroke:#1f77b4;" x="263.874412" xlink:href="#m3baefb1e67" y="221.087091"/>
     <use style="fill:#1f77b4;stroke:#1f77b4;" x="265.194146" xlink:href="#m3baefb1e67" y="220.328948"/>
     <use style="fill:#1f77b4;stroke:#1f77b4;" x="266.51388" xlink:href="#m3baefb1e67" y="219.713182"/>
     <use style="fill:#1f77b4;stroke:#1f77b4;" x="267.833614" xlink:href="#m3baefb1e67" y="219.199295"/>
     <use style="fill:#1f77b4;stroke:#1f77b4;" x="269.153348" xlink:href="#m3baefb1e67" y="218.576508"/>
     <use style="fill:#1f77b4;stroke:#1f77b4;" x="270.473082" xlink:href="#m3baefb1e67" y="217.844822"/>
     <use style="fill:#1f77b4;stroke:#1f77b4;" x="271.792816" xlink:href="#m3baefb1e67" y="217.000966"/>
     <use style="fill:#1f77b4;stroke:#1f77b4;" x="273.11255" xlink:href="#m3baefb1e67" y="215.863196"/>
     <use style="fill:#1f77b4;stroke:#1f77b4;" x="274.432284" xlink:href="#m3baefb1e67" y="214.367665"/>
     <use style="fill:#1f77b4;stroke:#1f77b4;" x="275.752018" xlink:href="#m3baefb1e67" y="212.514373"/>
     <use style="fill:#1f77b4;stroke:#1f77b4;" x="277.071752" xlink:href="#m3baefb1e67" y="210.659852"/>
     <use style="fill:#1f77b4;stroke:#1f77b4;" x="278.391486" xlink:href="#m3baefb1e67" y="208.805331"/>
     <use style="fill:#1f77b4;stroke:#1f77b4;" x="279.71122" xlink:href="#m3baefb1e67" y="206.95081"/>
     <use style="fill:#1f77b4;stroke:#1f77b4;" x="281.030953" xlink:href="#m3baefb1e67" y="205.096289"/>
     <use style="fill:#1f77b4;stroke:#1f77b4;" x="282.350687" xlink:href="#m3baefb1e67" y="203.241768"/>
     <use style="fill:#1f77b4;stroke:#1f77b4;" x="283.670421" xlink:href="#m3baefb1e67" y="201.387247"/>
     <use style="fill:#1f77b4;stroke:#1f77b4;" x="284.990155" xlink:href="#m3baefb1e67" y="199.532726"/>
     <use style="fill:#1f77b4;stroke:#1f77b4;" x="286.309889" xlink:href="#m3baefb1e67" y="197.678205"/>
     <use style="fill:#1f77b4;stroke:#1f77b4;" x="287.629623" xlink:href="#m3baefb1e67" y="195.823684"/>
     <use style="fill:#1f77b4;stroke:#1f77b4;" x="288.949357" xlink:href="#m3baefb1e67" y="193.969163"/>
     <use style="fill:#1f77b4;stroke:#1f77b4;" x="290.269091" xlink:href="#m3baefb1e67" y="192.114642"/>
     <use style="fill:#1f77b4;stroke:#1f77b4;" x="291.588825" xlink:href="#m3baefb1e67" y="190.260121"/>
     <use style="fill:#1f77b4;stroke:#1f77b4;" x="292.908559" xlink:href="#m3baefb1e67" y="188.405599"/>
     <use style="fill:#1f77b4;stroke:#1f77b4;" x="294.228293" xlink:href="#m3baefb1e67" y="186.551078"/>
     <use style="fill:#1f77b4;stroke:#1f77b4;" x="295.548027" xlink:href="#m3baefb1e67" y="184.696557"/>
     <use style="fill:#1f77b4;stroke:#1f77b4;" x="296.867761" xlink:href="#m3baefb1e67" y="182.842036"/>
     <use style="fill:#1f77b4;stroke:#1f77b4;" x="298.187494" xlink:href="#m3baefb1e67" y="180.987515"/>
     <use style="fill:#1f77b4;stroke:#1f77b4;" x="299.507228" xlink:href="#m3baefb1e67" y="179.132994"/>
     <use style="fill:#1f77b4;stroke:#1f77b4;" x="300.826962" xlink:href="#m3baefb1e67" y="177.278473"/>
     <use style="fill:#1f77b4;stroke:#1f77b4;" x="302.146696" xlink:href="#m3baefb1e67" y="175.423952"/>
     <use style="fill:#1f77b4;stroke:#1f77b4;" x="303.46643" xlink:href="#m3baefb1e67" y="173.569431"/>
     <use style="fill:#1f77b4;stroke:#1f77b4;" x="304.786164" xlink:href="#m3baefb1e67" y="171.71491"/>
     <use style="fill:#1f77b4;stroke:#1f77b4;" x="306.105898" xlink:href="#m3baefb1e67" y="169.860389"/>
     <use style="fill:#1f77b4;stroke:#1f77b4;" x="307.425632" xlink:href="#m3baefb1e67" y="168.005868"/>
     <use style="fill:#1f77b4;stroke:#1f77b4;" x="308.745366" xlink:href="#m3baefb1e67" y="166.151347"/>
     <use style="fill:#1f77b4;stroke:#1f77b4;" x="310.0651" xlink:href="#m3baefb1e67" y="164.296826"/>
     <use style="fill:#1f77b4;stroke:#1f77b4;" x="311.384834" xlink:href="#m3baefb1e67" y="162.442305"/>
     <use style="fill:#1f77b4;stroke:#1f77b4;" x="312.704568" xlink:href="#m3baefb1e67" y="160.587784"/>
     <use style="fill:#1f77b4;stroke:#1f77b4;" x="314.024302" xlink:href="#m3baefb1e67" y="158.733263"/>
     <use style="fill:#1f77b4;stroke:#1f77b4;" x="315.344035" xlink:href="#m3baefb1e67" y="156.878742"/>
     <use style="fill:#1f77b4;stroke:#1f77b4;" x="316.663769" xlink:href="#m3baefb1e67" y="155.024221"/>
     <use style="fill:#1f77b4;stroke:#1f77b4;" x="317.983503" xlink:href="#m3baefb1e67" y="153.1697"/>
     <use style="fill:#1f77b4;stroke:#1f77b4;" x="319.303237" xlink:href="#m3baefb1e67" y="151.315179"/>
     <use style="fill:#1f77b4;stroke:#1f77b4;" x="320.622971" xlink:href="#m3baefb1e67" y="149.460658"/>
     <use style="fill:#1f77b4;stroke:#1f77b4;" x="321.942705" xlink:href="#m3baefb1e67" y="147.606137"/>
     <use style="fill:#1f77b4;stroke:#1f77b4;" x="323.262439" xlink:href="#m3baefb1e67" y="145.751616"/>
     <use style="fill:#1f77b4;stroke:#1f77b4;" x="324.582173" xlink:href="#m3baefb1e67" y="143.897095"/>
     <use style="fill:#1f77b4;stroke:#1f77b4;" x="325.901907" xlink:href="#m3baefb1e67" y="142.042574"/>
     <use style="fill:#1f77b4;stroke:#1f77b4;" x="327.221641" xlink:href="#m3baefb1e67" y="140.188053"/>
     <use style="fill:#1f77b4;stroke:#1f77b4;" x="328.541375" xlink:href="#m3baefb1e67" y="138.333532"/>
     <use style="fill:#1f77b4;stroke:#1f77b4;" x="329.861109" xlink:href="#m3baefb1e67" y="136.479011"/>
     <use style="fill:#1f77b4;stroke:#1f77b4;" x="331.180843" xlink:href="#m3baefb1e67" y="134.62449"/>
     <use style="fill:#1f77b4;stroke:#1f77b4;" x="332.500576" xlink:href="#m3baefb1e67" y="132.769969"/>
     <use style="fill:#1f77b4;stroke:#1f77b4;" x="333.82031" xlink:href="#m3baefb1e67" y="130.915448"/>
     <use style="fill:#1f77b4;stroke:#1f77b4;" x="335.140044" xlink:href="#m3baefb1e67" y="129.060927"/>
     <use style="fill:#1f77b4;stroke:#1f77b4;" x="336.459778" xlink:href="#m3baefb1e67" y="127.206406"/>
     <use style="fill:#1f77b4;stroke:#1f77b4;" x="337.779512" xlink:href="#m3baefb1e67" y="125.351885"/>
     <use style="fill:#1f77b4;stroke:#1f77b4;" x="339.099246" xlink:href="#m3baefb1e67" y="123.497364"/>
     <use style="fill:#1f77b4;stroke:#1f77b4;" x="340.41898" xlink:href="#m3baefb1e67" y="121.642843"/>
     <use style="fill:#1f77b4;stroke:#1f77b4;" x="341.738714" xlink:href="#m3baefb1e67" y="119.788322"/>
     <use style="fill:#1f77b4;stroke:#1f77b4;" x="343.058448" xlink:href="#m3baefb1e67" y="117.933801"/>
     <use style="fill:#1f77b4;stroke:#1f77b4;" x="344.378182" xlink:href="#m3baefb1e67" y="116.07928"/>
     <use style="fill:#1f77b4;stroke:#1f77b4;" x="345.697916" xlink:href="#m3baefb1e67" y="114.224759"/>
     <use style="fill:#1f77b4;stroke:#1f77b4;" x="347.01765" xlink:href="#m3baefb1e67" y="112.370238"/>
     <use style="fill:#1f77b4;stroke:#1f77b4;" x="348.337384" xlink:href="#m3baefb1e67" y="110.515717"/>
     <use style="fill:#1f77b4;stroke:#1f77b4;" x="349.657118" xlink:href="#m3baefb1e67" y="108.661196"/>
     <use style="fill:#1f77b4;stroke:#1f77b4;" x="350.976851" xlink:href="#m3baefb1e67" y="106.806686"/>
     <use style="fill:#1f77b4;stroke:#1f77b4;" x="352.296585" xlink:href="#m3baefb1e67" y="104.952187"/>
     <use style="fill:#1f77b4;stroke:#1f77b4;" x="353.616319" xlink:href="#m3baefb1e67" y="103.097698"/>
     <use style="fill:#1f77b4;stroke:#1f77b4;" x="354.936053" xlink:href="#m3baefb1e67" y="101.649923"/>
     <use style="fill:#1f77b4;stroke:#1f77b4;" x="356.255787" xlink:href="#m3baefb1e67" y="101.919759"/>
     <use style="fill:#1f77b4;stroke:#1f77b4;" x="357.575521" xlink:href="#m3baefb1e67" y="103.907026"/>
     <use style="fill:#1f77b4;stroke:#1f77b4;" x="358.895255" xlink:href="#m3baefb1e67" y="105.894189"/>
     <use style="fill:#1f77b4;stroke:#1f77b4;" x="360.214989" xlink:href="#m3baefb1e67" y="106.983529"/>
     <use style="fill:#1f77b4;stroke:#1f77b4;" x="361.534723" xlink:href="#m3baefb1e67" y="107.175045"/>
     <use style="fill:#1f77b4;stroke:#1f77b4;" x="362.854457" xlink:href="#m3baefb1e67" y="106.483733"/>
     <use style="fill:#1f77b4;stroke:#1f77b4;" x="364.174191" xlink:href="#m3baefb1e67" y="104.909594"/>
     <use style="fill:#1f77b4;stroke:#1f77b4;" x="365.493925" xlink:href="#m3baefb1e67" y="102.789208"/>
     <use style="fill:#1f77b4;stroke:#1f77b4;" x="366.813659" xlink:href="#m3baefb1e67" y="100.668822"/>
     <use style="fill:#1f77b4;stroke:#1f77b4;" x="368.133392" xlink:href="#m3baefb1e67" y="98.665704"/>
     <use style="fill:#1f77b4;stroke:#1f77b4;" x="369.453126" xlink:href="#m3baefb1e67" y="96.917598"/>
     <use style="fill:#1f77b4;stroke:#1f77b4;" x="370.77286" xlink:href="#m3baefb1e67" y="95.424503"/>
     <use style="fill:#1f77b4;stroke:#1f77b4;" x="372.092594" xlink:href="#m3baefb1e67" y="94.181209"/>
     <use style="fill:#1f77b4;stroke:#1f77b4;" x="373.412328" xlink:href="#m3baefb1e67" y="93.149804"/>
     <use style="fill:#1f77b4;stroke:#1f77b4;" x="374.732062" xlink:href="#m3baefb1e67" y="92.329758"/>
     <use style="fill:#1f77b4;stroke:#1f77b4;" x="376.051796" xlink:href="#m3baefb1e67" y="91.396792"/>
     <use style="fill:#1f77b4;stroke:#1f77b4;" x="377.37153" xlink:href="#m3baefb1e67" y="90.352049"/>
     <use style="fill:#1f77b4;stroke:#1f77b4;" x="378.691264" xlink:href="#m3baefb1e67" y="89.311765"/>
     <use style="fill:#1f77b4;stroke:#1f77b4;" x="380.010998" xlink:href="#m3baefb1e67" y="88.280404"/>
     <use style="fill:#1f77b4;stroke:#1f77b4;" x="381.330732" xlink:href="#m3baefb1e67" y="87.252136"/>
     <use style="fill:#1f77b4;stroke:#1f77b4;" x="382.650466" xlink:href="#m3baefb1e67" y="85.824806"/>
     <use style="fill:#1f77b4;stroke:#1f77b4;" x="383.9702" xlink:href="#m3baefb1e67" y="83.998413"/>
     <use style="fill:#1f77b4;stroke:#1f77b4;" x="385.289933" xlink:href="#m3baefb1e67" y="81.843944"/>
     <use style="fill:#1f77b4;stroke:#1f77b4;" x="386.609667" xlink:href="#m3baefb1e67" y="80.167207"/>
     <use style="fill:#1f77b4;stroke:#1f77b4;" x="387.929401" xlink:href="#m3baefb1e67" y="78.968203"/>
     <use style="fill:#1f77b4;stroke:#1f77b4;" x="389.249135" xlink:href="#m3baefb1e67" y="77.745208"/>
     <use style="fill:#1f77b4;stroke:#1f77b4;" x="390.568869" xlink:href="#m3baefb1e67" y="75.932063"/>
     <use style="fill:#1f77b4;stroke:#1f77b4;" x="391.888603" xlink:href="#m3baefb1e67" y="74.118919"/>
     <use style="fill:#1f77b4;stroke:#1f77b4;" x="393.208337" xlink:href="#m3baefb1e67" y="72.519943"/>
     <use style="fill:#1f77b4;stroke:#1f77b4;" x="394.528071" xlink:href="#m3baefb1e67" y="70.920967"/>
     <use style="fill:#1f77b4;stroke:#1f77b4;" x="395.847805" xlink:href="#m3baefb1e67" y="69.321992"/>
     <use style="fill:#1f77b4;stroke:#1f77b4;" x="397.167539" xlink:href="#m3baefb1e67" y="68.37607"/>
     <use style="fill:#1f77b4;stroke:#1f77b4;" x="398.487273" xlink:href="#m3baefb1e67" y="68.0832"/>
    </g>
   </g>
   <g id="line2d_13"/>
   <g id="patch_3">
    <path d="M 57.6 307.584 
L 57.6 41.472 
" style="fill:none;stroke:#000000;stroke-linecap:square;stroke-linejoin:miter;stroke-width:0.8;"/>
   </g>
   <g id="patch_4">
    <path d="M 414.72 307.584 
L 414.72 41.472 
" style="fill:none;stroke:#000000;stroke-linecap:square;stroke-linejoin:miter;stroke-width:0.8;"/>
   </g>
   <g id="patch_5">
    <path d="M 57.6 307.584 
L 414.72 307.584 
" style="fill:none;stroke:#000000;stroke-linecap:square;stroke-linejoin:miter;stroke-width:0.8;"/>
   </g>
   <g id="patch_6">
    <path d="M 57.6 41.472 
L 414.72 41.472 
" style="fill:none;stroke:#000000;stroke-linecap:square;stroke-linejoin:miter;stroke-width:0.8;"/>
   </g>
   <g id="text_14">
    <!-- Focal Length -->
    <g transform="translate(198.009375 35.472)scale(0.12 -0.12)">
     <defs>
      <path d="M 30.609375 48.390625 
Q 23.390625 48.390625 19.1875 42.75 
Q 14.984375 37.109375 14.984375 27.296875 
Q 14.984375 17.484375 19.15625 11.84375 
Q 23.34375 6.203125 30.609375 6.203125 
Q 37.796875 6.203125 41.984375 11.859375 
Q 46.1875 17.53125 46.1875 27.296875 
Q 46.1875 37.015625 41.984375 42.703125 
Q 37.796875 48.390625 30.609375 48.390625 
z
M 30.609375 56 
Q 42.328125 56 49.015625 48.375 
Q 55.71875 40.765625 55.71875 27.296875 
Q 55.71875 13.875 49.015625 6.21875 
Q 42.328125 -1.421875 30.609375 -1.421875 
Q 18.84375 -1.421875 12.171875 6.21875 
Q 5.515625 13.875 5.515625 27.296875 
Q 5.515625 40.765625 12.171875 48.375 
Q 18.84375 56 30.609375 56 
z
" id="DejaVuSans-111"/>
      <path d="M 48.78125 52.59375 
L 48.78125 44.1875 
Q 44.96875 46.296875 41.140625 47.34375 
Q 37.3125 48.390625 33.40625 48.390625 
Q 24.65625 48.390625 19.8125 42.84375 
Q 14.984375 37.3125 14.984375 27.296875 
Q 14.984375 17.28125 19.8125 11.734375 
Q 24.65625 6.203125 33.40625 6.203125 
Q 37.3125 6.203125 41.140625 7.25 
Q 44.96875 8.296875 48.78125 10.40625 
L 48.78125 2.09375 
Q 45.015625 0.34375 40.984375 -0.53125 
Q 36.96875 -1.421875 32.421875 -1.421875 
Q 20.0625 -1.421875 12.78125 6.34375 
Q 5.515625 14.109375 5.515625 27.296875 
Q 5.515625 40.671875 12.859375 48.328125 
Q 20.21875 56 33.015625 56 
Q 37.15625 56 41.109375 55.140625 
Q 45.0625 54.296875 48.78125 52.59375 
z
" id="DejaVuSans-99"/>
      <path d="M 9.421875 75.984375 
L 18.40625 75.984375 
L 18.40625 0 
L 9.421875 0 
z
" id="DejaVuSans-108"/>
      <path id="DejaVuSans-32"/>
      <path d="M 9.8125 72.90625 
L 19.671875 72.90625 
L 19.671875 8.296875 
L 55.171875 8.296875 
L 55.171875 0 
L 9.8125 0 
z
" id="DejaVuSans-76"/>
      <path d="M 54.890625 33.015625 
L 54.890625 0 
L 45.90625 0 
L 45.90625 32.71875 
Q 45.90625 40.484375 42.875 44.328125 
Q 39.84375 48.1875 33.796875 48.1875 
Q 26.515625 48.1875 22.3125 43.546875 
Q 18.109375 38.921875 18.109375 30.90625 
L 18.109375 0 
L 9.078125 0 
L 9.078125 54.6875 
L 18.109375 54.6875 
L 18.109375 46.1875 
Q 21.34375 51.125 25.703125 53.5625 
Q 30.078125 56 35.796875 56 
Q 45.21875 56 50.046875 50.171875 
Q 54.890625 44.34375 54.890625 33.015625 
z
" id="DejaVuSans-110"/>
      <path d="M 45.40625 27.984375 
Q 45.40625 37.75 41.375 43.109375 
Q 37.359375 48.484375 30.078125 48.484375 
Q 22.859375 48.484375 18.828125 43.109375 
Q 14.796875 37.75 14.796875 27.984375 
Q 14.796875 18.265625 18.828125 12.890625 
Q 22.859375 7.515625 30.078125 7.515625 
Q 37.359375 7.515625 41.375 12.890625 
Q 45.40625 18.265625 45.40625 27.984375 
z
M 54.390625 6.78125 
Q 54.390625 -7.171875 48.1875 -13.984375 
Q 42 -20.796875 29.203125 -20.796875 
Q 24.46875 -20.796875 20.265625 -20.09375 
Q 16.0625 -19.390625 12.109375 -17.921875 
L 12.109375 -9.1875 
Q 16.0625 -11.328125 19.921875 -12.34375 
Q 23.78125 -13.375 27.78125 -13.375 
Q 36.625 -13.375 41.015625 -8.765625 
Q 45.40625 -4.15625 45.40625 5.171875 
L 45.40625 9.625 
Q 42.625 4.78125 38.28125 2.390625 
Q 33.9375 0 27.875 0 
Q 17.828125 0 11.671875 7.65625 
Q 5.515625 15.328125 5.515625 27.984375 
Q 5.515625 40.671875 11.671875 48.328125 
Q 17.828125 56 27.875 56 
Q 33.9375 56 38.28125 53.609375 
Q 42.625 51.21875 45.40625 46.390625 
L 45.40625 54.6875 
L 54.390625 54.6875 
z
" id="DejaVuSans-103"/>
      <path d="M 18.3125 70.21875 
L 18.3125 54.6875 
L 36.8125 54.6875 
L 36.8125 47.703125 
L 18.3125 47.703125 
L 18.3125 18.015625 
Q 18.3125 11.328125 20.140625 9.421875 
Q 21.96875 7.515625 27.59375 7.515625 
L 36.8125 7.515625 
L 36.8125 0 
L 27.59375 0 
Q 17.1875 0 13.234375 3.875 
Q 9.28125 7.765625 9.28125 18.015625 
L 9.28125 47.703125 
L 2.6875 47.703125 
L 2.6875 54.6875 
L 9.28125 54.6875 
L 9.28125 70.21875 
z
" id="DejaVuSans-116"/>
      <path d="M 54.890625 33.015625 
L 54.890625 0 
L 45.90625 0 
L 45.90625 32.71875 
Q 45.90625 40.484375 42.875 44.328125 
Q 39.84375 48.1875 33.796875 48.1875 
Q 26.515625 48.1875 22.3125 43.546875 
Q 18.109375 38.921875 18.109375 30.90625 
L 18.109375 0 
L 9.078125 0 
L 9.078125 75.984375 
L 18.109375 75.984375 
L 18.109375 46.1875 
Q 21.34375 51.125 25.703125 53.5625 
Q 30.078125 56 35.796875 56 
Q 45.21875 56 50.046875 50.171875 
Q 54.890625 44.34375 54.890625 33.015625 
z
" id="DejaVuSans-104"/>
     </defs>
     <use xlink:href="#DejaVuSans-70"/>
     <use x="53.894531" xlink:href="#DejaVuSans-111"/>
     <use x="115.076172" xlink:href="#DejaVuSans-99"/>
     <use x="170.056641" xlink:href="#DejaVuSans-97"/>
     <use x="231.335938" xlink:href="#DejaVuSans-108"/>
     <use x="259.119141" xlink:href="#DejaVuSans-32"/>
     <use x="290.90625" xlink:href="#DejaVuSans-76"/>
     <use x="344.869141" xlink:href="#DejaVuSans-101"/>
     <use x="406.392578" xlink:href="#DejaVuSans-110"/>
     <use x="469.771484" xlink:href="#DejaVuSans-103"/>
     <use x="533.248047" xlink:href="#DejaVuSans-116"/>
     <use x="572.457031" xlink:href="#DejaVuSans-104"/>
    </g>
   </g>
  </g>
 </g>
 <defs>
  <clipPath id="p6e674280bd">
   <rect height="266.112" width="357.12" x="57.6" y="41.472"/>
  </clipPath>
 </defs>
</svg>
